#!OML:ASF H:\Dans Jumps\Project 1\Capture day 1\Session 1\subject.ASF
:FULLY-SPECIFIED
:DEGREES
222
root 0.64289 16.3743 -15.492 12.3817 -1.87242 -2.01263
lowerback 9.68706 -0.275774 0.241256
upperback 5.64191 -0.337599 1.99145
thorax 0.435617 -0.196104 1.95235
lowerneck -14.671 0.694917 -1.42756
upperneck 22.815 1.58399 -1.06479
head 9.63901 0.485238 0.0680211
rclavicle -1.2921e-015 1.11319e-014
rhumerus -37.3255 -18.2682 -70.7626
rradius 25.2815
rwrist 30.1304
rhand -17.7949 -25.5978
rfingers 7.12502
rthumb 8.46825 -55.4081
lclavicle -1.2921e-015 1.11319e-014
lhumerus -34.8347 -1.22085 85.3492
lradius 18.5363
lwrist 12.1899
lhand -26.4904 -3.66002
lfingers 7.12502
lthumb 0.0720562 26.3197
rfemur -40.9749 -1.24175 20.7066
rtibia 52.1388
rfoot -24.174 -6.10933
rtoes 4.83448
lfemur -40.8037 10.1605 -20.2728
ltibia 51.5834
lfoot -20.4545 10.4007
ltoes -7.53793
223
root 0.643583 16.3348 -15.5003 12.5136 -1.91586 -2.02186
lowerback 9.87342 -0.271068 0.234064
upperback 5.64013 -0.329426 1.98244
thorax 0.331795 -0.191745 1.94779
lowerneck -14.7492 0.703669 -1.4304
upperneck 22.6817 1.5993 -1.07751
head 9.60685 0.491841 0.0661189
rclavicle 1.49089e-015 -5.96354e-016
rhumerus -37.6202 -18.421 -70.5574
rradius 25.231
rwrist 30.1795
rhand -17.7535 -25.6152
rfingers 7.12502
rthumb 8.50824 -55.4238
lclavicle 1.49089e-015 -5.96354e-016
lhumerus -35.1651 -1.00547 85.2414
lradius 18.3171
lwrist 11.9007
lhand -26.3601 -3.54135
lfingers 7.12502
lthumb 0.197915 26.4383
rfemur -41.5202 -1.23046 20.7344
rtibia 52.854
rfoot -24.6649 -6.53858
rtoes 4.76235
lfemur -41.3514 10.1328 -20.2983
ltibia 52.2932
lfoot -20.8571 10.7827
ltoes -8.0378
224
root 0.644372 16.2959 -15.5073 12.6502 -1.9472 -2.02156
lowerback 10.0607 -0.271542 0.220484
upperback 5.63106 -0.328493 1.97325
thorax 0.220244 -0.191054 1.94734
lowerneck -14.842 0.712847 -1.42865
upperneck 22.5666 1.61552 -1.09364
head 9.58395 0.498587 0.0624797
rclavicle 1.65985e-014 -7.35503e-015
rhumerus -37.9179 -18.5723 -70.3467
rradius 25.1733
rwrist 30.2612
rhand -17.7612 -25.562
rfingers 7.12502
rthumb 8.50075 -55.3709
lclavicle 1.65985e-014 -7.35503e-015
lhumerus -35.4875 -0.748329 85.1165
lradius 18.1008
lwrist 11.5808
lhand -26.2241 -3.43584
lfingers 7.12502
lthumb 0.329289 26.5437
rfemur -42.0539 -1.2414 20.7553
rtibia 53.5562
rfoot -25.1626 -7.01762
rtoes 4.74287
lfemur -41.8909 10.0879 -20.3326
ltibia 52.9839
lfoot -21.2765 11.1768
ltoes -8.58953
225
root 0.645367 16.2581 -15.5132 12.7904 -1.96636 -2.01832
lowerback 10.2521 -0.276159 0.208133
upperback 5.61535 -0.33277 1.96588
thorax 0.0997966 -0.192872 1.94866
lowerneck -14.9468 0.721058 -1.42621
upperneck 22.4675 1.63104 -1.11089
head 9.56897 0.504695 0.0583428
rclavicle -6.85807e-015 2.98177e-014
rhumerus -38.2058 -18.6919 -70.1544
rradius 25.1385
rwrist 30.2583
rhand -17.7075 -25.5655
rfingers 7.12502
rthumb 8.55257 -55.3723
lclavicle -6.85807e-015 2.98177e-014
lhumerus -35.7955 -0.458484 84.9794
lradius 17.8844
lwrist 11.2529
lhand -26.0845 -3.3265
lfingers 7.12502
lthumb 0.464125 26.6527
rfemur -42.5757 -1.27349 20.7772
rtibia 54.2374
rfoot -25.6571 -7.51066
rtoes 4.6924
lfemur -42.4203 10.0252 -20.3675
ltibia 53.6524
lfoot -21.6936 11.5704
ltoes -9.13719
226
root 0.646609 16.2213 -15.5184 12.9372 -1.97619 -2.0163
lowerback 10.4475 -0.282844 0.201391
upperback 5.59415 -0.339148 1.96055
thorax -0.028364 -0.195572 1.94928
lowerneck -15.0661 0.727016 -1.42401
upperneck 22.3808 1.64367 -1.12657
head 9.56111 0.509398 0.0545252
rclavicle 1.6201e-014 -2.38542e-015
rhumerus -38.4828 -18.8128 -69.9611
rradius 25.0913
rwrist 30.292
rhand -17.6761 -25.5131
rfingers 7.12502
rthumb 8.58296 -55.3187
lclavicle 1.6201e-014 -2.38542e-015
lhumerus -36.0831 -0.140118 84.8316
lradius 17.6683
lwrist 10.9046
lhand -25.9493 -3.22442
lfingers 7.12502
lthumb 0.594669 26.7545
rfemur -43.0922 -1.32067 20.8038
rtibia 54.8933
rfoot -26.1381 -7.9778
rtoes 4.52826
lfemur -42.9453 9.94902 -20.3993
ltibia 54.299
lfoot -22.0954 11.9565
ltoes -9.66311
227
root 0.648128 16.1858 -15.5231 13.096 -1.98072 -2.02064
lowerback 10.6476 -0.290555 0.201776
upperback 5.56412 -0.345978 1.95938
thorax -0.168208 -0.198312 1.95038
lowerneck -15.1969 0.733518 -1.42008
upperneck 22.3038 1.65735 -1.14352
head 9.5588 0.514416 0.050188
rclavicle -6.65929e-015 8.94531e-015
rhumerus -38.7396 -18.9108 -69.7847
rradius 25.0564
rwrist 30.2738
rhand -17.577 -25.5046
rfingers 7.12502
rthumb 8.67855 -55.3062
lclavicle -6.65929e-015 8.94531e-015
lhumerus -36.3509 0.208025 84.6745
lradius 17.4486
lwrist 10.5496
lhand -25.8101 -3.13809
lfingers 7.12502
lthumb 0.729139 26.8404
rfemur -43.6111 -1.37342 20.8389
rtibia 55.5207
rfoot -26.6043 -8.38961
rtoes 4.20234
lfemur -43.4716 9.86166 -20.4234
ltibia 54.9247
lfoot -22.468 12.3298
ltoes -10.114
228
root 0.649846 16.1511 -15.5278 13.2675 -1.98025 -2.03592
lowerback 10.8543 -0.295705 0.215239
upperback 5.52466 -0.347846 1.96442
thorax -0.321575 -0.19831 1.95019
lowerneck -15.315 0.736184 -1.42555
upperneck 22.2147 1.66602 -1.15399
head 9.54973 0.517287 0.048965
rclavicle 7.65321e-015 -4.96962e-015
rhumerus -38.9772 -19.0191 -69.608
rradius 25.0205
rwrist 30.2389
rhand -17.4449 -25.5275
rfingers 7.12502
rthumb 8.80603 -55.3237
lclavicle 7.65321e-015 -4.96962e-015
lhumerus -36.594 0.570785 84.5169
lradius 17.2256
lwrist 10.1955
lhand -25.6763 -3.06528
lfingers 7.12502
lthumb 0.858412 26.9127
rfemur -44.1363 -1.42068 20.8854
rtibia 56.1216
rfoot -27.0564 -8.73488
rtoes 3.73604
lfemur -44.0022 9.76131 -20.433
ltibia 55.5328
lfoot -22.8159 12.693
ltoes -10.4772
229
root 0.651795 16.1173 -15.5323 13.4558 -1.97758 -2.05436
lowerback 11.0672 -0.299867 0.232128
upperback 5.47324 -0.347629 1.97217
thorax -0.490747 -0.197138 1.95081
lowerneck -15.4332 0.739298 -1.42956
upperneck 22.1213 1.67481 -1.16426
head 9.53914 0.520423 0.0475777
rclavicle -4.57205e-015 9.54166e-015
rhumerus -39.1991 -19.1377 -69.43
rradius 24.969
rwrist 30.2677
rhand -17.3209 -25.5602
rfingers 7.12502
rthumb 8.92573 -55.3514
lclavicle -4.57205e-015 9.54166e-015
lhumerus -36.8118 0.958096 84.3497
lradius 16.9944
lwrist 9.83508
lhand -25.5355 -2.991
lfingers 7.12502
lthumb 0.994388 26.9864
rfemur -44.67 -1.45727 20.9313
rtibia 56.6978
rfoot -27.4935 -9.02719
rtoes 3.196
lfemur -44.5391 9.64521 -20.4375
ltibia 56.1233
lfoot -23.1507 13.0505
ltoes -10.7674
230
root 0.653875 16.0846 -15.5364 13.6616 -1.97202 -2.0752
lowerback 11.2841 -0.304012 0.249681
upperback 5.41234 -0.346888 1.9836
thorax -0.671877 -0.195667 1.95497
lowerneck -15.552 0.743309 -1.43423
upperneck 22.0179 1.68445 -1.17296
head 9.52514 0.524207 0.0469409
rclavicle -4.96962e-015 3.37934e-015
rhumerus -39.3997 -19.2679 -69.2501
rradius 24.9054
rwrist 30.3416
rhand -17.1931 -25.6114
rfingers 7.12502
rthumb 9.04901 -55.3973
lclavicle -4.96962e-015 3.37934e-015
lhumerus -36.998 1.37828 84.1696
lradius 16.7528
lwrist 9.46365
lhand -25.3923 -2.92776
lfingers 7.12502
lthumb 1.13269 27.049
rfemur -45.2093 -1.47677 20.9731
rtibia 57.252
rfoot -27.9138 -9.29249
rtoes 2.66641
lfemur -45.0812 9.51351 -20.4377
ltibia 56.6965
lfoot -23.477 13.4048
ltoes -10.9826
231
root 0.655938 16.0529 -15.5399 13.8835 -1.95908 -2.09367
lowerback 11.5062 -0.309368 0.265387
upperback 5.34251 -0.347494 1.99618
thorax -0.864999 -0.194831 1.96168
lowerneck -15.6694 0.746671 -1.43553
upperneck 21.9 1.69238 -1.1833
head 9.50582 0.527502 0.0449284
rclavicle 8.24956e-015 -2.127e-014
rhumerus -39.5801 -19.4202 -69.0659
rradius 24.829
rwrist 30.4624
rhand -17.0626 -25.6727
rfingers 7.12502
rthumb 9.17495 -55.4531
lclavicle 8.24956e-015 -2.127e-014
lhumerus -37.1521 1.82513 83.9748
lradius 16.5027
lwrist 9.08069
lhand -25.2582 -2.86166
lfingers 7.12502
lthumb 1.2622 27.1144
rfemur -45.7505 -1.48273 21.0068
rtibia 57.7847
rfoot -28.313 -9.55555
rtoes 2.18346
lfemur -45.6262 9.36284 -20.4382
ltibia 57.2492
lfoot -23.7941 13.7522
ltoes -11.1256
232
root 0.657878 16.0224 -15.5428 14.1222 -1.93653 -2.10571
lowerback 11.7287 -0.317296 0.276039
upperback 5.26718 -0.351735 2.00839
thorax -1.06386 -0.195826 1.97142
lowerneck -15.7881 0.750213 -1.4334
upperneck 21.7671 1.69933 -1.19338
head 9.48151 0.530844 0.042289
rclavicle 8.94531e-016 -1.66979e-014
rhumerus -39.7392 -19.6035 -68.873
rradius 24.7213
rwrist 30.6971
rhand -17.0084 -25.7009
rfingers 7.12502
rthumb 9.22722 -55.479
lclavicle 8.94531e-016 -1.66979e-014
lhumerus -37.2706 2.30366 83.7622
lradius 16.2467
lwrist 8.67344
lhand -25.1411 -2.80444
lfingers 7.12502
lthumb 1.37531 27.1709
rfemur -46.2939 -1.48057 21.0292
rtibia 58.2969
rfoot -28.6849 -9.82786
rtoes 1.77132
lfemur -46.1752 9.19021 -20.443
ltibia 57.7788
lfoot -24.0931 14.0977
ltoes -11.2105
233
root 0.659646 15.9932 -15.5449 14.375 -1.89811 -2.11285
lowerback 11.9544 -0.329907 0.286078
upperback 5.18628 -0.36188 2.021
thorax -1.26999 -0.199694 1.98286
lowerneck -15.9042 0.756361 -1.42479
upperneck 21.6194 1.70846 -1.20621
head 9.45159 0.535634 0.0378579
rclavicle 1.98785e-015 -1.05356e-014
rhumerus -39.8703 -19.7827 -68.6972
rradius 24.6154
rwrist 30.9037
rhand -16.9538 -25.746
rfingers 7.12502
rthumb 9.27992 -55.5217
lclavicle 1.98785e-015 -1.05356e-014
lhumerus -37.3556 2.8034 83.5387
lradius 15.9915
lwrist 8.25281
lhand -25.0468 -2.7109
lfingers 7.12502
lthumb 1.46636 27.2638
rfemur -46.8345 -1.48019 21.0463
rtibia 58.7868
rfoot -29.0289 -10.1096
rtoes 1.42606
lfemur -46.724 8.99318 -20.4489
ltibia 58.2816
lfoot -24.367 14.4369
ltoes -11.2405
234
root 0.661225 15.9656 -15.5465 14.6431 -1.84514 -2.11117
lowerback 12.1799 -0.347111 0.290064
upperback 5.10187 -0.378521 2.03313
thorax -1.47939 -0.206801 1.99828
lowerneck -16.0199 0.760508 -1.42646
upperneck 21.457 1.71396 -1.20562
head 9.41629 0.5396 0.039285
rclavicle 5.56597e-015 -3.97569e-015
rhumerus -39.9735 -19.9719 -68.5304
rradius 24.5066
rwrist 31.1028
rhand -16.8952 -25.7796
rfingers 7.12502
rthumb 9.33642 -55.5529
lclavicle 5.56597e-015 -3.97569e-015
lhumerus -37.4013 3.32766 83.3031
lradius 15.7329
lwrist 7.8042
lhand -24.9785 -2.61929
lfingers 7.12502
lthumb 1.53235 27.3549
rfemur -47.3775 -1.48291 21.0551
rtibia 59.2551
rfoot -29.3436 -10.3913
rtoes 1.12766
lfemur -47.2762 8.77005 -20.4591
ltibia 58.7563
lfoot -24.6112 14.7683
ltoes -11.2468
